<svg xmlns="http://www.w3.org/2000/svg" width="800" height="600"><style></style><rect class="boundary" x="0" y="0" fill="#000" width="800" height="600" data-type="pcb_background" data-pcb-layer="global"/><rect class="pcb-boundary" fill="none" stroke="#fff" stroke-width="0.3" x="36.28117913832199" y="256.8027210884354" width="727.4376417233561" height="86.39455782312928" data-type="pcb_boundary" data-pcb-layer="global"/><path class="pcb-board" d="M 36.28117913832199 343.1972789115647 L 36.28117913832199 293.0839002267574 L 36.28130747767881 292.5056054244614 L 36.28220585317467 291.92473058390027 L 36.28464430094937 291.34118801374717 L 36.28939285714296 290.7548900226758 L 36.297221557893806 290.16574891935943 L 36.30890043934261 289.57367701247165 L 36.325199537627725 288.97858661068597 L 36.34688888888877 288.3803900226757 L 36.37473852926587 287.77899955711456 L 36.40951849489801 287.1743275226759 L 36.45199882192469 286.5662862280329 L 36.502949546485354 285.95478798185945 L 36.563140704719615 285.33974509282893 L 36.63334233276669 284.7210698696146 L 36.714324466765845 284.09867462089016 L 36.806857142857325 283.4724716553289 L 36.89396710246615 282.9440836699264 L 36.99142559523841 282.40652933673476 L 37.09995615433718 281.86014145762476 L 37.220282312925235 281.3052528344671 L 37.3531276041669 280.7421962691328 L 37.4992155612245 280.1713045634921 L 37.65926971726236 279.5929105194162 L 37.83401360544218 279.00734693877564 L 38.02417075892856 278.4149466234411 L 38.23046471088435 277.8160423752834 L 38.45361899447283 277.2109669961735 L 38.69435714285726 276.60005328798184 L 38.95340268920074 275.9836340525793 L 39.231479166666816 275.3620420918367 L 39.529310108418485 274.73561020762475 L 39.847619047619105 274.1046712018141 L 40.25669368268143 273.3437598320579 L 40.683280753968404 272.6012884070294 L 41.12624133715974 271.8773652388039 L 41.58443650793646 271.172098639456 L 42.056727341978615 270.48559692106005 L 42.54197491496609 269.81796839569176 L 43.03904030257968 269.1693213754252 L 43.546784580499036 268.53976417233554 L 44.064068824404785 267.9294050984978 L 44.58975410997755 267.3383524659865 L 45.12270151289687 266.7667145868765 L 45.66177210884371 266.2145997732427 L 46.205826973497835 265.68211633715987 L 46.753727182539876 265.169372590703 L 47.30433381164977 264.6764768459467 L 47.856507936508024 264.203537414966 L 48.46040413300733 263.7092066503685 L 49.07096832482978 263.2324984410432 L 49.68833024199256 262.7733695259354 L 50.31261961451264 262.3317766439909 L 50.94396617240625 261.9076765341555 L 51.582499645691655 261.5010259353743 L 52.22834976438497 261.11178158659305 L 52.88164625850328 260.73990022675736 L 53.54251885806406 260.385338594813 L 54.21109729308415 260.0480534297052 L 54.88751129358019 259.72800147037987 L 55.571890589568966 259.4251394557824 L 56.26436491106864 259.1394241248582 L 56.965063988095324 258.87081221655336 L 57.67411755066604 258.6192604698129 L 58.39165532879821 258.3847256235827 L 59.33488976580196 258.1062526573129 L 60.27018218537421 257.86254053287985 L 61.19758971974204 257.65127186082776 L 62.11716950113396 257.4701292517006 L 63.028978661777444 257.3167953160431 L 63.93307433390055 257.18895266439904 L 64.82951364973081 257.08428390731297 L 65.71835374149668 257.0004716553289 L 66.59965174142553 256.935198518991 L 67.47346478174632 256.8861471088436 L 68.33984999468561 256.8510000354309 L 69.19886451247191 256.827439909297 L 70.05056546733272 256.8131493409864 L 70.89500999149658 256.80581094104315 L 71.73225521719127 256.8031073200114 L 72.56235827664403 256.8027210884354 L 727.4376417233561 256.8027210884354 L 728.0159365256523 256.8028494277919 L 728.5968113662134 256.80374780328793 L 729.1803539363668 256.806186251063 L 729.7666519274379 256.8109348072562 L 730.3557930307543 256.81876350800746 L 730.9478649376415 256.83044238945575 L 731.5429553394277 256.846741487741 L 732.1411519274375 256.86843083900226 L 732.7425423929988 256.8962804793793 L 733.3472144274376 256.9310604450114 L 733.9552557220809 256.97354077203806 L 734.5667539682538 257.0244914965987 L 735.1817968572846 257.08468265483276 L 735.8004720804993 257.15488428287983 L 736.4228673292234 257.2358664168793 L 737.0490702947848 257.3283990929706 L 737.5774582801874 257.4155090525794 L 738.1150126133789 257.5129675453514 L 738.6614004924886 257.62149810445015 L 739.2162891156462 257.7418242630386 L 739.7793456809807 257.87466955428005 L 740.3502373866213 258.02075751133793 L 740.9286314306978 258.1808116673752 L 741.5141950113384 258.35555555555555 L 742.1065953266725 258.545712709042 L 742.7054995748301 258.7520066609978 L 743.3105749539397 258.9751609445861 L 743.9214886621314 259.2158990929705 L 744.5379078975344 259.474944639314 L 745.1594998582771 259.75302111677996 L 745.785931742489 260.05085205853175 L 746.4168707482995 260.36916099773237 L 747.1777821180558 260.7782356327947 L 747.9202535430841 261.20482270408166 L 748.6441767113097 261.647783287273 L 749.349443310658 262.1059784580499 L 750.0359450290534 262.5782692920919 L 750.7035735544217 263.06351686507935 L 751.3522205746879 263.5605822526927 L 751.9817777777777 264.0683265306122 L 752.592136851616 264.58561077451816 L 753.1831894841267 265.1112960600908 L 753.7548273632372 265.64424346301024 L 754.3069421768713 266.1833140589568 L 754.8394256129533 266.7273689236111 L 755.3521693594107 267.275269132653 L 755.8450651041672 267.82587576176303 L 756.3180045351478 268.3780498866213 L 756.8123352997453 268.98194608312076 L 757.2890435090699 269.5925102749433 L 757.7481724241784 270.20987219210593 L 758.1897653061229 270.8341615646258 L 758.6138654159581 271.46550812252 L 759.0205160147394 272.10404159580503 L 759.4097603635203 272.74989171449823 L 759.7816417233564 273.40318820861694 L 760.1362033553005 274.06406080817743 L 760.4734885204085 274.7326392431973 L 760.7935404797336 275.4090532436933 L 761.0964024943311 276.0934325396826 L 761.3821178252552 276.785906861182 L 761.6507297335601 277.48660593820875 L 761.9022814803004 278.1956595007794 L 762.1368163265306 278.9131972789116 L 762.4152892928003 279.8564317159156 L 762.6590014172338 280.79172413548764 L 762.8702700892854 281.7191316698554 L 763.0514126984126 282.6387114512472 L 763.2047466340703 283.5505206118906 L 763.3325892857144 284.4546162840137 L 763.4372580428003 285.3510555998442 L 763.5210702947843 286.23989569161006 L 763.5863434311227 287.1211936915392 L 763.63539484127 287.99500673185946 L 763.6705419146823 288.86139194479875 L 763.6941020408161 289.72040646258506 L 763.7083926091266 290.5721074174461 L 763.7157310090704 291.41655194160995 L 763.718434630102 292.25379716730436 L 763.7188208616781 293.0839002267574 L 763.7188208616781 343.1972789115647 L 36.28117913832199 343.1972789115647 Z" fill="none" stroke="rgba(255, 255, 255, 0.5)" stroke-width="3.6281179138322006" data-type="pcb_board" data-pcb-layer="board"/></svg>